<svg width="163" height="109" viewBox="0 0 163 109" fill="none" xmlns="http://www.w3.org/2000/svg">
<path fill-rule="evenodd" clip-rule="evenodd" d="M116.343 47.2206L116.223 28.5148C120.631 26.077 125.239 23.7461 130.096 21.5317V41.063C125.139 42.986 120.551 45.0839 116.343 47.2206ZM112.895 66.9947C110.835 63.576 108.557 60.1476 106.068 56.7094C108.167 55.3983 110.436 54.058 112.875 52.708L112.895 66.9947ZM80.9398 103.833C76.312 99.958 57.361 83.894 49.1749 73.4533C52.2235 68.1407 55.4519 63.0321 58.8903 58.1177C62.0988 60.3612 64.9874 62.5756 67.5062 64.6346C65.1973 67.3832 62.9284 70.2386 60.6795 73.2202L59.7999 74.3857L81.0797 93.8587L102.08 74.2012L101.17 73.0454C98.9511 70.2289 96.6623 67.4803 94.2934 64.8094C96.6623 63.0127 99.3509 61.0799 102.34 59.1084C102.669 58.885 103.009 58.6616 103.349 58.4479C106.917 63.372 110.056 68.3059 112.745 73.2202C104.578 84.0105 85.5875 99.9872 80.9398 103.833ZM56.2216 56.3015C53.6528 59.9727 51.194 63.7314 48.8551 67.5968V51.7173C51.5138 53.2616 53.9726 54.8058 56.2216 56.3015ZM35.6214 41.4806C34.0622 40.8202 32.4929 40.1986 30.9237 39.6159L30.8337 21.7454C35.8613 24.0083 40.7889 26.5238 45.6066 29.2626V46.2202C42.2982 44.472 38.9698 42.8889 35.6214 41.4806ZM48.8551 6.49716C59.6199 14.1893 69.3953 22.1436 78.0711 30.2436C76.3719 31.9432 74.7127 33.6526 73.0935 35.4008C71.5143 37.1004 69.955 38.8486 68.4357 40.6163C62.1787 35.7893 55.6419 31.3702 48.8651 27.4173V6.49716H48.8551ZM94.7232 42.6655C100.39 38.2367 106.398 34.1867 112.844 30.4378L112.875 49.0367C109.706 50.7461 106.787 52.4555 104.139 54.1065C101.25 50.2896 98.1116 46.4727 94.7232 42.6655ZM82.8289 52.9605C85.8574 50.0565 88.9759 47.2983 92.2044 44.676C95.5128 48.386 98.5814 52.1155 101.4 55.8548C101.1 56.049 100.8 56.253 100.5 56.4375C97.3619 58.5159 94.5533 60.5361 92.0944 62.4105C89.1159 59.1375 86.0273 55.9907 82.8289 52.9605ZM69.995 66.713C75.9621 71.812 79.3105 75.522 79.3605 75.5706L80.54 76.8915L81.7594 75.5997C81.8093 75.5415 85.2977 71.8896 91.7146 66.8004C93.7536 69.1022 95.7427 71.4623 97.6717 73.8807L81.0397 89.4494L64.1578 73.9875C66.0869 71.4817 68.0259 69.0537 69.995 66.713ZM89.5357 64.3918C85.1777 67.8591 82.1592 70.6562 80.6099 72.1713C79.1106 70.6173 76.222 67.7523 72.104 64.2364C74.8527 61.0799 77.6513 58.0789 80.52 55.2137C83.6185 58.1663 86.627 61.2256 89.5357 64.3918ZM90.0254 42.2673C86.737 44.9576 83.5585 47.7742 80.46 50.7461C77.3814 47.9198 74.203 45.2004 70.9545 42.5976C73.9831 39.1012 77.1216 35.7116 80.4 32.4385C83.7884 35.6921 86.9969 38.9749 90.0254 42.2673ZM68.8555 45.0644C72.034 47.6091 75.1325 50.2508 78.1411 53.0091C75.2325 55.913 72.3938 58.9627 69.6052 62.1677C67.0264 60.0699 64.0678 57.8069 60.7594 55.4857C63.3482 51.9116 66.0469 48.4346 68.8555 45.0644ZM58.1007 53.6695C55.0621 51.6396 51.9736 49.7458 48.8551 47.9878V31.1565C54.8922 34.7695 60.7294 38.7515 66.3368 43.0734C63.4781 46.5019 60.7294 50.0274 58.1007 53.6695ZM112.805 6.32235L112.834 26.7083C105.568 30.8457 98.8512 35.3134 92.5442 40.2569C91.1749 38.7612 89.7555 37.2655 88.3062 35.7795C86.4871 33.9148 84.608 32.0501 82.6889 30.2047C91.7446 21.4443 101.76 13.5191 112.805 6.32235ZM7.65479 36.9256C14.7514 37.9357 21.4582 39.6936 27.6752 41.8886L27.7752 61.8278L7.65479 36.9256ZM133.345 43.2677C139.662 40.9076 146.538 38.8389 153.885 37.3238L133.345 62.1677V43.2677ZM162.021 32.5745L157.713 33.3127C148.937 34.8181 140.781 37.1198 133.345 39.8198V16.5202L131.046 17.54C125.838 19.8612 120.901 22.2796 116.183 24.8339L116.023 0.42701L113.534 2.00039C101.4 9.67306 90.2753 18.3947 80.35 27.9903C70.7846 19.0357 59.9998 10.3335 48.1654 2.04897L45.5967 0.252197V25.5526C40.4691 22.6972 35.2116 20.0943 29.8442 17.7731L27.5553 16.7824L27.6652 38.4504C19.809 35.7795 11.9028 34.0314 4.05654 33.2447L0.198364 32.8562L31.0836 71.0738L30.9437 43.0929C36.2511 45.1421 41.1588 47.4828 45.6066 49.8914V74.1138L45.9265 74.5411C55.0022 86.6425 78.8907 106.339 79.9102 107.164L80.9398 108.019L81.9793 107.174C82.9888 106.349 106.887 86.8659 115.983 74.2886L116.523 73.3853L116.373 50.8335C120.551 48.658 125.139 46.5116 130.106 44.5206V71.1904L162.021 32.5745Z" fill="#BDBDBD"/>
</svg>
