<svg width="28" height="28" viewBox="0 0 28 28" fill="none" xmlns="http://www.w3.org/2000/svg">
<path d="M3.97689 9.84C4.01712 9.33881 4.24464 8.87115 4.61417 8.53017C4.98369 8.18918 5.46808 7.9999 5.97089 8H18.0289C18.5317 7.9999 19.0161 8.18918 19.3856 8.53017C19.7551 8.87115 19.9827 9.33881 20.0229 9.84L20.8259 19.84C20.848 20.1152 20.8129 20.392 20.7227 20.6529C20.6326 20.9139 20.4894 21.1533 20.3022 21.3562C20.115 21.5592 19.8878 21.7211 19.6349 21.8319C19.382 21.9427 19.109 21.9999 18.8329 22H5.16689C4.89081 21.9999 4.61774 21.9427 4.36487 21.8319C4.112 21.7211 3.8848 21.5592 3.69759 21.3562C3.51037 21.1533 3.36719 20.9139 3.27706 20.6529C3.18693 20.392 3.1518 20.1152 3.17389 19.84L3.97689 9.84V9.84Z" stroke="#1E2725" stroke-width="2" stroke-linecap="round" stroke-linejoin="round"/>
<path d="M16 11V6C16 4.93913 15.5786 3.92172 14.8284 3.17157C14.0783 2.42143 13.0609 2 12 2C10.9391 2 9.92172 2.42143 9.17157 3.17157C8.42143 3.92172 8 4.93913 8 6V11" stroke="#1E2725" stroke-width="2" stroke-linecap="round" stroke-linejoin="round"/>
<circle cx="20.5" cy="20.5" r="7.5" fill="#F53737"/>
<path d="M23.4 23.13V24H18.37V23.32L21.22 20.57C21.5667 20.2367 21.8 19.95 21.92 19.71C22.04 19.4633 22.1 19.2167 22.1 18.97C22.1 18.6033 21.97 18.32 21.71 18.12C21.4567 17.9133 21.09 17.81 20.61 17.81C19.8367 17.81 19.24 18.0633 18.82 18.57L18.14 17.98C18.4133 17.6467 18.77 17.3867 19.21 17.2C19.6567 17.0133 20.1533 16.92 20.7 16.92C21.4333 16.92 22.0167 17.0967 22.45 17.45C22.8833 17.7967 23.1 18.27 23.1 18.87C23.1 19.2433 23.02 19.5967 22.86 19.93C22.7 20.2633 22.3967 20.6433 21.95 21.07L19.81 23.13H23.4Z" fill="white"/>
</svg>
