<svg width="60" height="60" viewBox="0 0 60 60" fill="none" xmlns="http://www.w3.org/2000/svg">
<path d="M29.9999 0.833252C37.9245 0.833252 38.9133 0.862418 42.0224 1.00825C45.1287 1.15409 47.2433 1.64117 49.1041 2.3645C51.0291 3.10534 52.6508 4.10867 54.2724 5.72742C55.7555 7.18545 56.9031 8.94914 57.6353 10.8958C58.3558 12.7537 58.8458 14.8712 58.9916 17.9774C59.1287 21.0866 59.1666 22.0753 59.1666 29.9999C59.1666 37.9245 59.1374 38.9133 58.9916 42.0224C58.8458 45.1287 58.3558 47.2433 57.6353 49.1041C56.9052 51.0518 55.7574 52.8159 54.2724 54.2724C52.814 55.755 51.0504 56.9025 49.1041 57.6353C47.2462 58.3558 45.1287 58.8458 42.0224 58.9916C38.9133 59.1287 37.9245 59.1666 29.9999 59.1666C22.0753 59.1666 21.0866 59.1374 17.9774 58.9916C14.8712 58.8458 12.7566 58.3558 10.8958 57.6353C8.94837 56.9046 7.18437 55.7568 5.72742 54.2724C4.24402 52.8146 3.09639 51.0509 2.3645 49.1041C1.64117 47.2462 1.15409 45.1287 1.00825 42.0224C0.871168 38.9133 0.833252 37.9245 0.833252 29.9999C0.833252 22.0753 0.862418 21.0866 1.00825 17.9774C1.15409 14.8683 1.64117 12.7566 2.3645 10.8958C3.09436 8.94794 4.24226 7.18377 5.72742 5.72742C7.18479 4.24351 8.94867 3.0958 10.8958 2.3645C12.7566 1.64117 14.8683 1.15409 17.9774 1.00825C21.0866 0.871168 22.0753 0.833252 29.9999 0.833252ZM29.9999 15.4166C26.1322 15.4166 22.4229 16.953 19.6879 19.6879C16.953 22.4229 15.4166 26.1322 15.4166 29.9999C15.4166 33.8677 16.953 37.577 19.6879 40.3119C22.4229 43.0468 26.1322 44.5833 29.9999 44.5833C33.8677 44.5833 37.577 43.0468 40.3119 40.3119C43.0468 37.577 44.5833 33.8677 44.5833 29.9999C44.5833 26.1322 43.0468 22.4229 40.3119 19.6879C37.577 16.953 33.8677 15.4166 29.9999 15.4166ZM48.9583 14.6874C48.9583 13.7205 48.5741 12.7932 47.8904 12.1094C47.2067 11.4257 46.2794 11.0416 45.3124 11.0416C44.3455 11.0416 43.4182 11.4257 42.7344 12.1094C42.0507 12.7932 41.6666 13.7205 41.6666 14.6874C41.6666 15.6544 42.0507 16.5817 42.7344 17.2654C43.4182 17.9491 44.3455 18.3333 45.3124 18.3333C46.2794 18.3333 47.2067 17.9491 47.8904 17.2654C48.5741 16.5817 48.9583 15.6544 48.9583 14.6874ZM29.9999 21.2499C32.3206 21.2499 34.5462 22.1718 36.1871 23.8127C37.8281 25.4537 38.7499 27.6793 38.7499 29.9999C38.7499 32.3206 37.8281 34.5462 36.1871 36.1871C34.5462 37.8281 32.3206 38.7499 29.9999 38.7499C27.6793 38.7499 25.4537 37.8281 23.8127 36.1871C22.1718 34.5462 21.2499 32.3206 21.2499 29.9999C21.2499 27.6793 22.1718 25.4537 23.8127 23.8127C25.4537 22.1718 27.6793 21.2499 29.9999 21.2499Z" fill="#333333"/>
</svg>
